<?xml version="1.0" encoding="utf-8"?>
<!-- Generator: Adobe Illustrator 16.0.0, SVG Export Plug-In . SVG Version: 6.00 Build 0)  -->
<!DOCTYPE svg PUBLIC "-//W3C//DTD SVG 1.1//EN" "http://www.w3.org/Graphics/SVG/1.1/DTD/svg11.dtd">
<svg version="1.1" id="Layer_1" xmlns="http://www.w3.org/2000/svg" xmlns:xlink="http://www.w3.org/1999/xlink" x="0px" y="0px"
	 width="70px" height="30px" viewBox="-253.3 441.336 70 30" enable-background="new -253.3 441.336 70 30" xml:space="preserve">
<g>
	<path fill="#FFFFFF" d="M-217.341,456.34c-0.191,2.176-1.087,3.968-2.559,5.248c-1.6,1.408-3.84,2.048-6.592,2.048h-6.144
		l1.216-13.44l-7.424,13.695h-1.855l-5.76-14.975h4.352c0,0,2.624,7.04,2.944,7.873c0.384-0.768,4.16-7.873,4.16-7.873h10.24
		c2.56,0,4.544,0.769,5.888,2.24C-217.724,452.436-217.212,454.292-217.341,456.34z M-227.58,451.988
		c-0.064,0.384-0.704,8.192-0.768,8.639c0.384,0,2.048,0,2.048,0c1.536,0,2.752-0.447,3.648-1.408
		c0.64-0.703,1.088-1.791,1.216-2.943c0-0.192,0-0.384,0-0.576c0-1.088-0.32-1.984-0.896-2.56c-0.704-0.768-1.792-1.152-3.2-1.152
		C-225.532,451.988-227.26,451.988-227.58,451.988z"/>
	<path fill="#FFFFFF" d="M-210.235,453.204c0.256,0.832,1.407,4.288,1.535,4.736c-0.512,0-3.199,0-3.713,0
		C-212.156,457.428-210.556,453.971-210.235,453.204z M-192.508,455.571c1.087-0.64,1.792-1.664,1.856-2.751
		c0-0.064,0-0.192,0-0.256c0-0.768-0.32-1.6-0.833-2.176c-0.575-0.64-1.664-1.408-3.776-1.408h-6.399l-1.216,13.632l-4.801-13.632
		h-4.416l-7.295,14.72h4.288c0,0,1.217-2.623,1.344-2.816c0.257,0,5.76,0,6.08,0c0.064,0.257,0.896,2.816,0.896,2.816h11.008
		c4.865,0,5.568-3.392,5.632-4.416c0-0.128,0-0.256,0-0.385C-190.141,457.299-191.036,456.148-192.508,455.571z M-196.284,451.988
		c0.512,0,0.961,0.128,1.215,0.448c0.193,0.192,0.257,0.448,0.257,0.704c0,0.064,0,0.064,0,0.128
		c-0.063,0.64-0.511,1.344-1.728,1.344c0,0-1.28,0-1.601,0c0.063-0.384,0.192-2.304,0.257-2.624
		C-197.628,451.988-196.284,451.988-196.284,451.988z M-196.156,457.684c0.704,0,1.216,0.191,1.536,0.512
		c0.191,0.193,0.256,0.447,0.256,0.703c0,0.064,0,0.064,0,0.129c-0.064,0.961-0.576,1.535-2.624,1.535c0,0-1.409,0-1.792,0
		c0.064-0.383,0.257-2.623,0.257-2.943C-198.077,457.684-196.156,457.684-196.156,457.684z"/>
	<polygon fill="#FFFFFF" points="-232.06,443.668 -232.124,445.651 -204.349,445.651 -204.284,443.668 	"/>
	<polygon fill="#FFFFFF" points="-232.06,467.027 -232.124,469.012 -204.413,469.012 -204.349,467.027 	"/>
</g>
</svg>
